<svg xmlns="http://www.w3.org/2000/svg" width="1493" height="257" viewBox="0 0 1493 257" fill="none"><path d="M596.96 253.341L646.3 253.161L600.97 169.041C601.49 168.791 602 168.541 602.51 168.281C615.36 161.681 625.39 152.381 632.59 140.391C639.79 128.411 643.36 114.361 643.3 98.2607C643.24 82.1607 639.56 68.1407 632.27 56.2107C624.98 44.2807 614.88 35.0007 601.98 28.3807C589.07 21.7607 574.34 18.4807 557.78 18.5407L471.18 18.8607L472.06 253.821L517.26 253.651L516.98 178.441L556.24 178.291L596.96 253.351V253.341ZM516.54 61.8107L553.46 61.6707C566.8 61.6207 577.39 64.6907 585.24 70.8707C593.08 77.0507 597.03 86.2407 597.07 98.4307C597.11 110.161 593.23 119.211 585.44 125.561C577.64 131.921 567.07 135.121 553.73 135.171L516.81 135.311L516.53 61.8207L516.54 61.8107Z" fill="#ffffff"></path><path d="M809.7 122.641C802.75 109.441 792.99 99.0708 780.43 91.5208C767.86 83.9808 753.07 80.2408 736.05 80.3008C719.26 80.3608 704.55 84.1608 691.93 91.6808C679.31 99.2008 669.57 109.591 662.72 122.841C655.87 136.091 652.48 151.461 652.54 168.941C652.61 186.651 656.11 202.051 663.06 215.131C670.01 228.211 679.82 238.361 692.5 245.551C705.17 252.751 719.91 256.321 736.7 256.251C755.1 256.181 770.78 252.391 783.75 244.861C796.71 237.341 806.97 226.551 814.51 212.491L783.05 194.671C778.25 201.821 772.52 207.821 765.87 212.681C759.21 217.541 750.03 219.981 738.3 220.031C724.96 220.081 714.42 216.271 706.69 208.591C699.96 201.921 696.15 193.021 695.23 181.891L819.23 181.431C819.68 179.821 819.96 177.801 820.07 175.391C820.17 172.971 820.22 170.501 820.21 167.971C820.15 150.951 816.64 135.841 809.69 122.641H809.7ZM736.18 115.841C750.44 115.791 760.98 120.231 767.8 129.181C771.82 134.451 774.65 140.661 776.32 147.781L695.83 148.081C697.34 139.911 700.8 133.051 706.21 127.511C713.77 119.781 723.76 115.891 736.18 115.841Z" fill="#ffffff"></path><path d="M960.42 17.0207L960.71 94.5207C958.62 92.8307 956.43 91.2607 954.14 89.8407C943.07 82.9807 930.06 79.5807 915.11 79.6407C899.93 79.7007 886.49 83.4307 874.78 90.8307C863.08 98.2407 853.97 108.561 847.47 121.811C840.96 135.061 837.74 150.431 837.81 167.911C837.87 185.161 841.15 200.451 847.64 213.761C854.13 227.081 863.25 237.511 875.01 245.051C886.77 252.601 900.35 256.341 915.76 256.281C930.48 256.221 943.4 252.491 954.53 245.091C959.31 241.911 963.62 238.201 967.48 233.941L972.67 251.921L1006.48 251.791L1005.6 16.8307L960.4 17.0007L960.42 17.0207ZM952.14 201.461C944.81 210.111 935.28 214.461 923.55 214.511C912.05 214.551 902.54 210.221 895.04 201.511C887.53 192.801 883.75 181.541 883.7 167.741C883.65 153.941 887.34 142.711 894.79 134.061C902.23 125.411 911.7 121.061 923.21 121.021C934.94 120.981 944.5 125.251 951.89 133.851C959.28 142.451 963 153.771 963.06 167.791C963.11 181.591 959.47 192.821 952.15 201.471L952.14 201.461Z" fill="#ffffff"></path><path d="M375.67 193.601C371.65 190.801 367.16 188.151 362.14 185.781C394.8 169.831 417.24 136.241 417.09 97.4607C416.89 43.4307 372.92 -0.199315 318.9 0.00068486L0 0.200682C0 0.200682 18.68 67.9607 82.97 77.5207L86.81 86.3907C87.6 88.2307 104.62 126.131 153.98 135.511L157.97 144.731C158.8 146.651 177.32 187.891 231.9 194.911L235.42 203.041C236.33 205.141 258.48 254.501 326.08 254.241L404.48 253.951L416.24 253.911C416.24 253.911 409.95 217.221 375.66 193.611L375.67 193.601ZM248.56 176.621C192.91 176.831 175.68 137.051 175.68 137.051L326.48 136.491C338.81 136.441 349.91 129.011 354.65 117.621L177.39 118.281C121.74 118.491 104.51 78.7107 104.51 78.7107L352.44 77.7807C346.99 66.3507 335.43 59.0807 322.77 59.1307L104.44 59.9507C48.79 60.1607 31.56 20.3807 31.56 20.3807L317.99 19.3107C361.29 19.1507 397.31 53.6507 397.79 96.9407C398.28 140.581 363.13 176.191 319.56 176.351L248.55 176.621H248.56ZM326.01 234.941C270.36 235.151 253.13 195.371 253.13 195.371L314.3 195.141C369.95 194.931 387.01 234.711 387.01 234.711L326.01 234.941Z" fill="#C21C17"></path><path d="M1060.62 57.3607C1068.9 57.3307 1075.5 54.7808 1080.43 49.7008C1085.36 44.6208 1087.81 38.1708 1087.78 30.3508C1087.75 22.0708 1085.25 15.3508 1080.29 10.1908C1075.32 5.03075 1068.7 2.47075 1060.42 2.50075C1052.14 2.53075 1045.53 5.14075 1040.61 10.3407C1035.68 15.5307 1033.24 22.2707 1033.27 30.5507C1033.3 38.3707 1035.79 44.8007 1040.76 49.8407C1045.72 54.8807 1052.35 57.3907 1060.63 57.3607H1060.62Z" fill="#ffffff"></path><path d="M1084.01 221.011L1083.49 82.8008L1038.29 82.9708L1038.61 167.431L1038.92 251.681L1084.12 251.511L1084.01 221.011Z" fill="#ffffff"></path><path d="M1492.03 251.351L1491.72 167.161C1491.41 117.961 1451.34 78.2608 1402.11 78.4508C1352.88 78.6308 1313.11 118.631 1313.17 167.831V168.061L1313.48 252.021L1359.24 251.851L1358.93 167.891H1358.96C1358.87 143.871 1378.27 124.331 1402.28 124.241C1426.3 124.151 1445.84 143.541 1445.93 167.561H1445.96L1446.27 251.521L1492.03 251.351Z" fill="#C21C17"></path><path d="M1217.34 250.171C1203.72 250.221 1190.68 245.931 1178.52 237.411L1229.89 185.661C1242.48 172.971 1249.38 156.141 1249.31 138.271C1249.31 137.281 1249.28 136.291 1249.23 135.301C1248.17 112.881 1234.19 93.0908 1213.93 83.4208C1209.8 81.4508 1205.81 79.5908 1203.36 78.5708C1222.51 79.1308 1248.74 90.0708 1262.66 103.881C1297.84 138.801 1298.75 194.381 1264.72 230.421L1264.14 231.041C1263.81 231.401 1263.48 231.751 1263.13 232.101C1256.51 238.771 1239.41 250.091 1217.34 250.171Z" fill="#C21C17"></path><path d="M1178.79 84.7308C1192.41 84.6808 1205.45 88.9708 1217.61 97.4908L1166.24 149.241C1153.65 161.931 1146.75 178.761 1146.82 196.631C1146.82 197.621 1146.85 198.611 1146.9 199.601C1147.96 222.021 1161.94 241.811 1182.2 251.481C1186.33 253.451 1190.32 255.311 1192.77 256.331C1173.62 255.771 1147.39 244.831 1133.47 231.021C1098.29 196.101 1097.38 140.521 1131.41 104.481L1131.99 103.861C1132.32 103.501 1132.65 103.151 1133 102.801C1139.62 96.1308 1156.72 84.8108 1178.79 84.7308Z" fill="#C21C17"></path></svg>